<mxfile host="app.diagrams.net" agent="Mozilla/5.0 (Windows NT 10.0; Win64; x64) AppleWebKit/537.36 (KHTML, like Gecko) Chrome/132.0.0.0 Safari/537.36" version="26.0.11">
  <diagram name="Página-1" id="qSJQa_vN1r_TIWl7zP5U">
    <mxGraphModel dx="2228" dy="1116" grid="1" gridSize="10" guides="1" tooltips="1" connect="1" arrows="1" fold="1" page="1" pageScale="1" pageWidth="850" pageHeight="1100" math="0" shadow="0">
      <root>
        <mxCell id="0" />
        <mxCell id="1" parent="0" />
        <mxCell id="gTdC3eN7-62bD2NYkpPL-3" value="" style="edgeStyle=orthogonalEdgeStyle;rounded=0;orthogonalLoop=1;jettySize=auto;html=1;" edge="1" parent="1" source="gTdC3eN7-62bD2NYkpPL-1" target="gTdC3eN7-62bD2NYkpPL-2">
          <mxGeometry relative="1" as="geometry" />
        </mxCell>
        <mxCell id="gTdC3eN7-62bD2NYkpPL-1" value="Inicio" style="ellipse;whiteSpace=wrap;html=1;" vertex="1" parent="1">
          <mxGeometry x="200" width="120" height="80" as="geometry" />
        </mxCell>
        <mxCell id="gTdC3eN7-62bD2NYkpPL-5" value="" style="edgeStyle=orthogonalEdgeStyle;rounded=0;orthogonalLoop=1;jettySize=auto;html=1;" edge="1" parent="1" source="gTdC3eN7-62bD2NYkpPL-2" target="gTdC3eN7-62bD2NYkpPL-4">
          <mxGeometry relative="1" as="geometry" />
        </mxCell>
        <mxCell id="gTdC3eN7-62bD2NYkpPL-2" value="a,b,c,d,e: Reales" style="whiteSpace=wrap;html=1;" vertex="1" parent="1">
          <mxGeometry x="200" y="110" width="120" height="60" as="geometry" />
        </mxCell>
        <mxCell id="gTdC3eN7-62bD2NYkpPL-7" value="" style="edgeStyle=orthogonalEdgeStyle;rounded=0;orthogonalLoop=1;jettySize=auto;html=1;" edge="1" parent="1" source="gTdC3eN7-62bD2NYkpPL-4" target="gTdC3eN7-62bD2NYkpPL-6">
          <mxGeometry relative="1" as="geometry" />
        </mxCell>
        <mxCell id="gTdC3eN7-62bD2NYkpPL-4" value="Imprimir &quot;Ingrese valor de a&quot;" style="shape=document;whiteSpace=wrap;html=1;boundedLbl=1;" vertex="1" parent="1">
          <mxGeometry x="200" y="200" width="120" height="80" as="geometry" />
        </mxCell>
        <mxCell id="gTdC3eN7-62bD2NYkpPL-9" value="" style="edgeStyle=orthogonalEdgeStyle;rounded=0;orthogonalLoop=1;jettySize=auto;html=1;" edge="1" parent="1" source="gTdC3eN7-62bD2NYkpPL-6" target="gTdC3eN7-62bD2NYkpPL-8">
          <mxGeometry relative="1" as="geometry" />
        </mxCell>
        <mxCell id="gTdC3eN7-62bD2NYkpPL-6" value="&quot;a&quot;" style="shape=parallelogram;perimeter=parallelogramPerimeter;whiteSpace=wrap;html=1;fixedSize=1;" vertex="1" parent="1">
          <mxGeometry x="200" y="310" width="120" height="60" as="geometry" />
        </mxCell>
        <mxCell id="gTdC3eN7-62bD2NYkpPL-11" value="" style="edgeStyle=orthogonalEdgeStyle;rounded=0;orthogonalLoop=1;jettySize=auto;html=1;" edge="1" parent="1" source="gTdC3eN7-62bD2NYkpPL-8" target="gTdC3eN7-62bD2NYkpPL-10">
          <mxGeometry relative="1" as="geometry" />
        </mxCell>
        <mxCell id="gTdC3eN7-62bD2NYkpPL-8" value="Imprimir &quot;Ingrese valor de b&quot;" style="shape=document;whiteSpace=wrap;html=1;boundedLbl=1;" vertex="1" parent="1">
          <mxGeometry x="200" y="400" width="120" height="80" as="geometry" />
        </mxCell>
        <mxCell id="gTdC3eN7-62bD2NYkpPL-13" value="" style="edgeStyle=orthogonalEdgeStyle;rounded=0;orthogonalLoop=1;jettySize=auto;html=1;" edge="1" parent="1" source="gTdC3eN7-62bD2NYkpPL-10" target="gTdC3eN7-62bD2NYkpPL-12">
          <mxGeometry relative="1" as="geometry" />
        </mxCell>
        <mxCell id="gTdC3eN7-62bD2NYkpPL-10" value="&quot;b&quot;" style="shape=parallelogram;perimeter=parallelogramPerimeter;whiteSpace=wrap;html=1;fixedSize=1;" vertex="1" parent="1">
          <mxGeometry x="200" y="520" width="120" height="60" as="geometry" />
        </mxCell>
        <mxCell id="gTdC3eN7-62bD2NYkpPL-15" value="" style="edgeStyle=orthogonalEdgeStyle;rounded=0;orthogonalLoop=1;jettySize=auto;html=1;" edge="1" parent="1" source="gTdC3eN7-62bD2NYkpPL-12" target="gTdC3eN7-62bD2NYkpPL-14">
          <mxGeometry relative="1" as="geometry" />
        </mxCell>
        <mxCell id="gTdC3eN7-62bD2NYkpPL-12" value="Imprimir &quot;Ingrese valor de c&quot;" style="shape=document;whiteSpace=wrap;html=1;boundedLbl=1;" vertex="1" parent="1">
          <mxGeometry x="200" y="620" width="120" height="80" as="geometry" />
        </mxCell>
        <mxCell id="gTdC3eN7-62bD2NYkpPL-17" value="" style="edgeStyle=orthogonalEdgeStyle;rounded=0;orthogonalLoop=1;jettySize=auto;html=1;" edge="1" parent="1" source="gTdC3eN7-62bD2NYkpPL-14" target="gTdC3eN7-62bD2NYkpPL-16">
          <mxGeometry relative="1" as="geometry" />
        </mxCell>
        <mxCell id="gTdC3eN7-62bD2NYkpPL-14" value="&quot;c&quot;" style="shape=parallelogram;perimeter=parallelogramPerimeter;whiteSpace=wrap;html=1;fixedSize=1;" vertex="1" parent="1">
          <mxGeometry x="200" y="740" width="120" height="60" as="geometry" />
        </mxCell>
        <mxCell id="gTdC3eN7-62bD2NYkpPL-19" value="" style="edgeStyle=orthogonalEdgeStyle;rounded=0;orthogonalLoop=1;jettySize=auto;html=1;" edge="1" parent="1" source="gTdC3eN7-62bD2NYkpPL-16" target="gTdC3eN7-62bD2NYkpPL-18">
          <mxGeometry relative="1" as="geometry" />
        </mxCell>
        <mxCell id="gTdC3eN7-62bD2NYkpPL-16" value="Imprimir &quot;Ingrese valor de d&quot;" style="shape=document;whiteSpace=wrap;html=1;boundedLbl=1;" vertex="1" parent="1">
          <mxGeometry x="200" y="830" width="120" height="80" as="geometry" />
        </mxCell>
        <mxCell id="gTdC3eN7-62bD2NYkpPL-21" value="" style="edgeStyle=orthogonalEdgeStyle;rounded=0;orthogonalLoop=1;jettySize=auto;html=1;" edge="1" parent="1" source="gTdC3eN7-62bD2NYkpPL-18" target="gTdC3eN7-62bD2NYkpPL-20">
          <mxGeometry relative="1" as="geometry" />
        </mxCell>
        <mxCell id="gTdC3eN7-62bD2NYkpPL-18" value="&quot;d&quot;" style="shape=parallelogram;perimeter=parallelogramPerimeter;whiteSpace=wrap;html=1;fixedSize=1;" vertex="1" parent="1">
          <mxGeometry x="200" y="940" width="120" height="60" as="geometry" />
        </mxCell>
        <mxCell id="gTdC3eN7-62bD2NYkpPL-20" value="1" style="ellipse;whiteSpace=wrap;html=1;" vertex="1" parent="1">
          <mxGeometry x="238" y="1020" width="45" height="40" as="geometry" />
        </mxCell>
        <mxCell id="gTdC3eN7-62bD2NYkpPL-24" value="" style="edgeStyle=orthogonalEdgeStyle;rounded=0;orthogonalLoop=1;jettySize=auto;html=1;" edge="1" parent="1" source="gTdC3eN7-62bD2NYkpPL-22" target="gTdC3eN7-62bD2NYkpPL-23">
          <mxGeometry relative="1" as="geometry" />
        </mxCell>
        <mxCell id="gTdC3eN7-62bD2NYkpPL-22" value="1" style="ellipse;whiteSpace=wrap;html=1;aspect=fixed;" vertex="1" parent="1">
          <mxGeometry x="550" y="20" width="40" height="40" as="geometry" />
        </mxCell>
        <mxCell id="gTdC3eN7-62bD2NYkpPL-26" value="" style="edgeStyle=orthogonalEdgeStyle;rounded=0;orthogonalLoop=1;jettySize=auto;html=1;" edge="1" parent="1" source="gTdC3eN7-62bD2NYkpPL-23" target="gTdC3eN7-62bD2NYkpPL-25">
          <mxGeometry relative="1" as="geometry" />
        </mxCell>
        <mxCell id="gTdC3eN7-62bD2NYkpPL-23" value="Imprimir &quot;Ingrese valor de e&quot;" style="shape=document;whiteSpace=wrap;html=1;boundedLbl=1;" vertex="1" parent="1">
          <mxGeometry x="510" y="120" width="120" height="80" as="geometry" />
        </mxCell>
        <mxCell id="gTdC3eN7-62bD2NYkpPL-28" value="" style="edgeStyle=orthogonalEdgeStyle;rounded=0;orthogonalLoop=1;jettySize=auto;html=1;" edge="1" parent="1" source="gTdC3eN7-62bD2NYkpPL-25" target="gTdC3eN7-62bD2NYkpPL-27">
          <mxGeometry relative="1" as="geometry" />
        </mxCell>
        <mxCell id="gTdC3eN7-62bD2NYkpPL-25" value="&quot;e&quot;" style="shape=parallelogram;perimeter=parallelogramPerimeter;whiteSpace=wrap;html=1;fixedSize=1;" vertex="1" parent="1">
          <mxGeometry x="510" y="230" width="120" height="60" as="geometry" />
        </mxCell>
        <mxCell id="gTdC3eN7-62bD2NYkpPL-30" value="" style="edgeStyle=orthogonalEdgeStyle;rounded=0;orthogonalLoop=1;jettySize=auto;html=1;" edge="1" parent="1" source="gTdC3eN7-62bD2NYkpPL-27" target="gTdC3eN7-62bD2NYkpPL-29">
          <mxGeometry relative="1" as="geometry" />
        </mxCell>
        <mxCell id="gTdC3eN7-62bD2NYkpPL-27" value="Resultado= (a + b * c) / (d - e)" style="whiteSpace=wrap;html=1;" vertex="1" parent="1">
          <mxGeometry x="510" y="330" width="120" height="60" as="geometry" />
        </mxCell>
        <mxCell id="gTdC3eN7-62bD2NYkpPL-32" value="" style="edgeStyle=orthogonalEdgeStyle;rounded=0;orthogonalLoop=1;jettySize=auto;html=1;" edge="1" parent="1" source="gTdC3eN7-62bD2NYkpPL-29" target="gTdC3eN7-62bD2NYkpPL-31">
          <mxGeometry relative="1" as="geometry" />
        </mxCell>
        <mxCell id="gTdC3eN7-62bD2NYkpPL-29" value="Imprimir &quot;El resultado de la ecuación es...&quot;" style="shape=document;whiteSpace=wrap;html=1;boundedLbl=1;" vertex="1" parent="1">
          <mxGeometry x="510" y="420" width="120" height="80" as="geometry" />
        </mxCell>
        <mxCell id="gTdC3eN7-62bD2NYkpPL-31" value="Fin" style="ellipse;whiteSpace=wrap;html=1;" vertex="1" parent="1">
          <mxGeometry x="510" y="530" width="120" height="80" as="geometry" />
        </mxCell>
      </root>
    </mxGraphModel>
  </diagram>
</mxfile>
